PathFileType	4	(x/y/z)	A01_SLOW_T0026.trc
DataRate	CameraRate	NumFrames	NumMarkers	Units	OrigDataRate	OrigDataStartFrame	OrigNumFrames
240	240	4	48	mm	240	1	361
Frame#	Time	TOP_HEAD			R_AC			L_AC			R_ASIS			L_ASIS			R_PSIS			L_PSIS			SACRAL			L_IC			R_IC			L_GT			R_GT			R_LAT_KNEE			R_MED_KNEE			L_MED_KNEE			L_LAT_KNEE			R_TOE			L_TOE			R_1ST_MET			L_1ST_MET			L_5TH_MET			R_5TH_MET			R_LAT_ANK			R_MED_ANK			L_MED_ANK			L_LAT_ANK			L_HEEL_SUP			R_HEEL_SUP			L_HEEL_LAT			R_HEEL_LAT			L_HEEL_MED			R_HEEL_MED			R_LL_PROX_POST			R_LL_PROX_ANT			R_LL_DIST_ANT			R_LL_DIST_POST			R_THIGH_PROX_POST			R_THIGH_PROX_ANT			R_THIGH_DIST_ANT			R_THIGH_DIST_POST			L_PROS_PROX_ANT			L_PROS_PROX_POST			L_PROS_DIST_POST			L_PROS_DIST_ANT			L_THIGH_PROX_ANT			L_THIGH_PROX_POST			L_THIGH_DIST_POST			L_THIGH_DIST_ANT			
		X1	Y1	Z1	X2	Y2	Z2	X3	Y3	Z3	X4	Y4	Z4	X5	Y5	Z5	X6	Y6	Z6	X7	Y7	Z7	X8	Y8	Z8	X9	Y9	Z9	X10	Y10	Z10	X11	Y11	Z11	X12	Y12	Z12	X13	Y13	Z13	X14	Y14	Z14	X15	Y15	Z15	X16	Y16	Z16	X17	Y17	Z17	X18	Y18	Z18	X19	Y19	Z19	X20	Y20	Z20	X21	Y21	Z21	X22	Y22	Z22	X23	Y23	Z23	X24	Y24	Z24	X25	Y25	Z25	X26	Y26	Z26	X27	Y27	Z27	X28	Y28	Z28	X29	Y29	Z29	X30	Y30	Z30	X31	Y31	Z31	X32	Y32	Z32	X33	Y33	Z33	X34	Y34	Z34	X35	Y35	Z35	X36	Y36	Z36	X37	Y37	Z37	X38	Y38	Z38	X39	Y39	Z39	X40	Y40	Z40	X41	Y41	Z41	X42	Y42	Z42	X43	Y43	Z43	X44	Y44	Z44	X45	Y45	Z45	X46	Y46	Z46	X47	Y47	Z47	X48	Y48	Z48	

1	0	-634.8	1781.2	321.59	-806.2	1551.5	584.75	-925.12	1580.4	143.34	-843.98	1100.3	558.81	-832.65	1043.4	206.53	-1059.3	1105.9	425.73	-1045.9	1093.6	296.66	-1069.8	1070.9	359.98	-859.95	1175.8	154.23	-871.86	1207.3	565.62	-882.21	959	164.53	-924.59	995.2	595.2	-1028.9	600.83	528.83	NaN	NaN	NaN	-734.88	578.84	393.8	-796.9	591.09	226.11	-966.8	64.095	423.7	-381.86	202.79	281.49	-1046.9	54.092	379.02	-442.01	143.32	337.14	-465.22	124.05	207.67	-1071.7	45.727	513.85	-1158.9	145.23	493	-1158.2	155.06	392.46	-592.94	162.91	319.85	-617.65	145.06	252.66	-671.64	60.1	291.11	-1269.8	142.17	437.94	-649.47	37.975	258.66	-1269.6	117.52	471.62	-639.51	40.238	323.37	-1265.3	113.45	410.61	-1163	451.06	523.77	-1097.6	426.89	545.43	-1110.7	353.84	527.68	-1163.2	368.12	514.14	-997.2	869.85	569.23	-925.36	872.17	579.89	-942.87	782.5	569.23	-1010.8	781.8	556.94	-681.79	523.25	245.92	-731.41	499.94	234.48	-711.02	440.17	240.58	-666.6	468.86	252.11	-774.64	836.31	214.81	-837.31	821.41	183.4	-808.5	753.11	201.94	-751.52	767.61	229.75
2	0.0041782	-630.96	1780.2	320.69	-802.63	1550.7	584.15	-921.36	1579.2	142.66	-840.32	1099.5	558.6	-828.43	1042.5	206.31	-1055.3	1105.2	425.03	-1041.9	1092.8	295.99	-1065.8	1070.2	359.27	-856.12	1175	154.01	-868.25	1206.7	565.24	-877.89	958.05	164.27	-921.17	994.64	594.93	-1026.5	600.55	528.77	NaN	NaN	NaN	-730.88	577.88	393.87	-790.48	589.36	226.62	-966.76	64.107	423.67	-376.68	202.82	282.03	-1046.9	54.07	379	-436.76	143.16	337.54	-459.73	123.89	208.04	-1071.6	45.742	513.85	-1158.6	145.66	493.04	-1157.7	155.34	392.45	-587.72	162.33	320.04	-612.25	144.46	252.77	-666.16	59.386	291.14	-1269.5	142.8	437.92	-643.83	37.353	258.72	-1269.4	118.1	471.6	-633.97	39.599	323.44	-1265	114.04	410.6	-1161.2	451.37	523.71	-1096	426.89	545.4	-1109.4	353.92	527.66	-1161.8	368.46	514.17	-994.1	869.51	568.96	-922.29	871.64	579.77	-940.01	782.01	569.15	-1007.9	781.49	556.73	-677.42	522.45	246.07	-726.98	499.03	234.54	-706.41	439.32	240.66	-662.1	468.1	252.27	-770.37	835.48	214.75	-833.1	820.48	183.34	-804.25	752.19	201.98	-747.38	766.7	229.87
3	0.0083565	-626.95	1779.3	319.75	-798.89	1549.9	583.51	-917.43	1578	141.95	-836.5	1098.7	558.38	-824.03	1041.5	206.09	-1051.2	1104.5	424.3	-1037.6	1091.9	295.29	-1061.7	1069.4	358.54	-852.13	1174.3	153.78	-864.46	1205.9	564.85	-873.38	957.04	164	-917.61	994.05	594.66	-1024	600.26	528.72	NaN	NaN	NaN	-726.71	576.89	393.93	-783.78	587.54	227.14	-966.72	64.121	423.64	-371.35	202.73	282.57	-1046.8	54.048	378.99	-431.39	142.91	337.93	-454.13	123.65	208.41	-1071.5	45.757	513.85	-1158.3	146.11	493.09	-1157.3	155.64	392.45	-582.36	161.69	320.23	-606.73	143.81	252.88	-660.58	58.661	291.18	-1269.2	143.46	437.89	-638.09	36.71	258.78	-1269.1	118.71	471.58	-628.34	38.935	323.52	-1264.7	114.67	410.59	-1159.3	451.7	523.65	-1094.3	426.89	545.37	-1108	354	527.65	-1160.3	368.83	514.21	-990.85	869.16	568.68	-919.07	871.08	579.65	-937.02	781.5	569.07	-1004.8	781.15	556.52	-672.89	521.6	246.21	-722.38	498.08	234.59	-701.64	438.42	240.74	-657.43	467.29	252.43	-765.93	834.59	214.69	-828.71	819.51	183.28	-799.81	751.23	202.01	-743.06	765.73	229.99
4	0.012535	-622.81	1778.3	318.78	-795.02	1549	582.85	-913.34	1576.7	141.21	-832.54	1097.9	558.15	-819.47	1040.4	205.86	-1047	1103.7	423.54	-1033.2	1091	294.57	-1057.4	1068.6	357.79	-848	1173.5	153.56	-860.54	1205.2	564.44	-868.72	955.99	163.73	-913.91	993.44	594.37	-1021.3	599.95	528.67	NaN	NaN	NaN	-722.39	575.86	393.97	-776.86	585.66	227.67	-966.68	64.136	423.61	-365.93	202.5	283.08	-1046.8	54.024	378.98	-425.95	142.54	338.31	-448.47	123.3	208.77	-1071.4	45.772	513.86	-1158	146.56	493.13	-1156.8	155.95	392.45	-576.94	160.98	320.42	-601.15	143.08	252.99	-654.96	57.932	291.23	-1268.9	144.17	437.86	-632.34	36.054	258.86	-1268.8	119.34	471.56	-622.68	38.253	323.6	-1264.4	115.33	410.58	-1157.4	452.04	523.6	-1092.5	426.89	545.34	-1106.5	354.09	527.64	-1158.7	369.21	514.26	-987.47	868.78	568.4	-915.73	870.5	579.54	-933.91	780.97	568.99	-1001.7	780.81	556.3	-668.22	520.7	246.34	-717.66	497.07	234.63	-696.76	437.47	240.8	-652.65	466.42	252.56	-761.34	833.67	214.62	-824.18	818.5	183.23	-795.24	750.23	202.04	-738.59	764.72	230.09
